<svg xmlns="http://www.w3.org/2000/svg" xmlns:xlink="http://www.w3.org/1999/xlink" viewBox="0 0 289.42 283.17"><defs><style>.cls-1{fill:none;}.cls-2{fill:#c9631f;}.cls-3{fill:#d36818;}.cls-4{fill:#478c19;}.cls-5{fill:#83bd0d;}.cls-6{fill:#acd032;}.cls-7{fill:#d1f246;}.cls-8{fill:#2d6524;}.cls-9{fill:#440b00;}.cls-10{fill:#5c1300;}.cls-11{fill:#c07429;}.cls-12{fill:#ffd400;}.cls-13{fill:#efb412;}.cls-14{fill:#bc8408;}.cls-15{fill:#ce0000;}.cls-16{fill:#ea2f2f;}.cls-17{fill:url(#radial-gradient);}.cls-18{fill:#ff0;}.cls-19{fill:#e19853;}.cls-20{fill:#d8712b;}.cls-21{clip-path:url(#clip-path);}.cls-22{fill:url(#radial-gradient-2);}.cls-23{fill:#fccd89;}.cls-24{fill:#f4b860;}.cls-25{clip-path:url(#clip-path-2);}.cls-26{fill:#e27029;}</style><radialGradient id="radial-gradient" cx="274.63" cy="250.32" r="188.49" gradientUnits="userSpaceOnUse"><stop offset="0" stop-color="#ff9f2f"/><stop offset="1" stop-color="#e6772f"/></radialGradient><clipPath id="clip-path"><path class="cls-1" d="M267,88c0,36.93-54.7,26.36-122.17,26.36S22.69,125,22.69,88s54.7-66.88,122.17-66.88S267,51.1,267,88Z"/></clipPath><radialGradient id="radial-gradient-2" cx="147.7" cy="26.41" r="115.6" gradientTransform="matrix(1, -0.01, 0.01, 0.67, -0.22, 10.84)" gradientUnits="userSpaceOnUse"><stop offset="0" stop-color="#ffc22f"/><stop offset="1" stop-color="#e6772f"/></radialGradient><clipPath id="clip-path-2"><path class="cls-1" d="M217.47,102.23c-49.11-12.29-92.93-6.4-142.62-1-36.63,4-47.6-13.56-50.83-23A37.68,37.68,0,0,0,22.69,88c0,36.93,54.7,26.36,122.17,26.36,65.16,0,118.4,9.85,122-22.74C257.67,100.77,242.28,108.43,217.47,102.23Z"/></clipPath></defs><title>Burger</title><g id="Layer_2" data-name="Layer 2"><g id="Objects"><g id="Burger"><path class="cls-2" d="M23.91,216.93s-4.19,28.31,6.32,43.32S89.15,284.37,166,283s88.68-17.26,90.78-25.41,6.72-41.55,2.92-49.71S26.87,209,23.91,216.93Z"/><ellipse class="cls-3" cx="147.5" cy="226.63" rx="115.26" ry="20.17"/><path class="cls-4" d="M94,252.77l25.33-10.17s-1.1-12-1.51-12-18.81,4-18.81,4Z"/><path class="cls-4" d="M192.3,246.25s-24.61-1.06-31-9.37,6.82-5.31,6.82-5.31Z"/><path class="cls-4" d="M232.38,245.79a33.22,33.22,0,0,1-16.76-1.34c-8.54-3.15-18.86-7.94-18.86-7.94l15.11-2.69,14.83,4.83Z"/><path class="cls-4" d="M259.54,243l-24-6.2s-2.1-5.69-1.2-5.77,15.57,0,15.57,0Z"/><path class="cls-5" d="M259.15,205c.62.21,14.42-13.8,14.83-7s4.32,14.62,8.23,15.86-.82,22-11.53,28.21-24.09-6.8-28.41-7-1.86,6.17-7.62,10.09-20.18-10.51-25.12-7.83-3.92,9.27-13.39,9.47-30.68-14.62-34.8-9.88-10.91,27.39-29.24,16.06S114,229.67,106,239.14s-12.77,20.47-22.24,11.27S64.35,231.32,60,240.59s-14,5.55-21.62,2.88-7.62-17.3-13.8-16.48S3.81,224.52.52,216.29s9.47-14,27.59-16.06S259.15,205,259.15,205Z"/><path class="cls-6" d="M.52,216.29a6.31,6.31,0,0,1-.32-4c5,2.63,13.15-1.82,15.64-3.34,3.14-1.91-2.73,7,5.18,10.36s6.92,9.12,6.92,9.12h0A3.64,3.64,0,0,0,24.61,227C18.43,227.82,3.81,224.52.52,216.29Z"/><path class="cls-6" d="M81.28,223.3c1.77.75,15.13-4.15,15.13,1.43s-18,19.1-5.48,29.11c-2.14.19-4.48-.77-7.22-3.43-8.11-7.89-16.52-16.26-21.49-12.68h0S79.5,222.55,81.28,223.3Z"/><path class="cls-6" d="M123.25,223.3s6.43,27.82,12.5,31.52h0a24.94,24.94,0,0,1-3.65-1.88c-14.32-8.85-17.32-18.07-21.78-17.17l4.4-12.47Z"/><path class="cls-6" d="M274,198c.41,6.8,4.32,14.62,8.23,15.86L259.15,205C259.77,205.17,273.57,191.16,274,198Z"/><path class="cls-6" d="M132.53,222h12.58l21.6,14.31h0c-2.48-.6-4.4-.57-5.37.54-3.1,3.56-7.71,17.26-17.61,19-.3-2.06.45-4.86,2.88-8.45C152.42,238.84,132.53,222,132.53,222Z"/><path class="cls-4" d="M46.83,217.52l27.6,7.35S50.18,235.58,44,239s-1.78,5.82-1.78,5.82h0c-1.29-.43-2.57-.88-3.79-1.31-5-1.75-6.71-8.6-9-12.9C39.38,227.31,46.83,217.52,46.83,217.52Z"/><path class="cls-4" d="M255,213.82l7.08,1.09s-.35,3.25,5.64,8.55-8.46,4.81-19.15,3a140.06,140.06,0,0,0-20.08-1.83l20.59-10.11,3.76.06A13.29,13.29,0,0,0,255,213.82Z"/><path class="cls-7" d="M31.54,213.84s12.27,6.12,9.9,9.24-3.35,3,.87,4,11.54,4.67,12.11.8,2.14-7.56,4.33-7.38-1.44.8-1.84,3.69-.41,9.18-2.95,8.48-19.79-3.17-18.7-5.42,5.14-6.18,2.31-6.64-11.83-4.17-11.83-4.17Z"/><path class="cls-6" d="M236,244.07l-17.36-18L242.27,235C238.31,234.84,240,240.16,236,244.07Z"/><path class="cls-7" d="M194,229.05s-13.22,5.58-8.58,7.73,14.6-4.59,19.7,0,7.78,5.39,8.06,3.19,8.62-7.84,11.28-4.09,6.16-6.26,5.92-8.94-3.83,7.71-5.11,7.71-4.4-3.22-8.92-1.09-6,4.59-8.45,2.32-5.36-4.71-10.27-2.85-10.78,2-9,.79,8.63-4.77,8.63-4.77Z"/><path class="cls-8" d="M179.89,235.08a55.66,55.66,0,0,1,6.17,1.93c2.14.91,5.11,3.08,5.11,1.64s.59-5,3.2-2.63a3.66,3.66,0,0,0,5.58-.54c.59-.77.3,2.08,2.58,0s4.42-5.87,7.74-3.38,3.68-3.8,3.68-3.8S174.43,230.81,179.89,235.08Z"/><path class="cls-9" d="M29.88,178.4s-6.56,2.61-7.19,21.29,19,20.34,41.56,27,94.08,13,139.89,5.32,55.18-20.6,57.3-23.25,7.44-23.07-5.18-35S35.7,168.26,29.88,178.4Z"/><path class="cls-10" d="M236.92,223.88c-1-6.23-13.51-10.14-25.06-20-14.37-12.23-14.37,9.47-14.67,9.3s-10.4-16-18.09-17-9,19.39-9,19.39-8.07-8.34-16.43-9.87-21,15.29-21,16.81a73.52,73.52,0,0,0-2.8-13.14c-2.79-9.17-13.1-3.36-31.13-1.39-13.14,1.44-34.53,10.77-45.17,15.73,3.43.9,7,1.85,10.66,2.92a130,130,0,0,0,14.09,3.08,106.61,106.61,0,0,0,14.32-8.69A43.55,43.55,0,0,0,94.16,232c4.43.53,9.14,1,14,1.45a75.29,75.29,0,0,0,10.42-9.68l4.11,10.75c10.08.61,20.64,1,31.14.95a28.77,28.77,0,0,0,3-9.41,31.8,31.8,0,0,0,.45,9.4c6.89-.05,13.74-.26,20.39-.65a69.27,69.27,0,0,0,2.7-14.1s.55,7.93,3.34,13.69c5.95-.47,11.69-1.1,17.12-1.9a28.12,28.12,0,0,0,1.41-11.79,97.43,97.43,0,0,0,15.85,8.55A159.86,159.86,0,0,0,236.92,223.88Z"/><path class="cls-11" d="M82.21,200.91s6.79-1.32,6.49,2.61-3.73,10.19-.4,9S88,204,92.13,203.42s.29-2.72,4.28,6.76,6.51-6.86,12.66-6.86,2.62,13,8.27,8.07,10.69-10.86,14-4.47-1.72,21.51,3.73,17.27.4-14.49,2.62-16.17,3.86,4.78,11.91,3.27S158,201.5,165,205.64s11,17.24,14.82,11.9,5.75-17.25,14.62-13.51,8.57,12.6,11.6,6.65,10.74-11,14.72-10-3.43-9.28-3.43-9.28L83.8,193.48Z"/><path class="cls-12" d="M27.32,168s-10-6.22-7,15.43c2.82,20.81,5,30.91,9.59,29.68s32.2-8.59,57.57-13.18,35.76,7.34,85.89,1.23,58.39,6.72,70.31,11,18.22-21.4,20.73-30.26,1.4-17.06-4.62-18.46S41.79,153.79,27.32,168Z"/><path class="cls-13" d="M259.76,163.44c-6-1.41-218-9.65-232.44,4.56,0,0-10-6.22-7,15.43l.15,1.09c1.48-3.86,4.25-7.11,9.44-5.68C41,181.9,58.1,185.15,63.6,190.1c3.42,3.07-6,11.76-13.72,17.92,3.43-.83,7.15-1.71,11-2.6h0s25.65-11,31.74-11.29,49.85,6.71,59,5.64S206.2,191.37,215,196a120.62,120.62,0,0,1,15.54,9.74c-1.32-3.88-1.43-7.76,1.81-10,8.25-5.8,21.7-19,24.15-15.28,2,3,1.74,14.06-1.21,25.68,4.68-7.31,7.59-18.8,9.1-24.15C266.88,173,265.78,164.84,259.76,163.44Z"/><path class="cls-9" d="M29.88,133.71s-6.56,2.6-7.19,21.28,19,20.34,41.56,27,94.08,13,139.89,5.31,55.18-20.59,57.3-23.25,7.44-23.07-5.18-34.95S35.7,123.56,29.88,133.71Z"/><path class="cls-10" d="M257.1,135.41c-3.69,4.19-1.84,14.09-1.84,14.09s-7.14-11-13.93-9.33S235,155.88,235,155.88s-3.36-14.47-6.33-13.86-27.57,31.65-33.19,37.36c-2.79,2.83-2,6.33-.45,9.22,3.14-.38,6.2-.82,9.16-1.31q6.09-1,11.35-2.15c3.2-5.9,6-12.48,6-12.48a35.44,35.44,0,0,0,3.42,10.23c5.06-1.34,9.42-2.74,13.18-4.15,3.07-7.33,3.71-17,3.71-17s.54,9.44,3.23,14.1a53.18,53.18,0,0,0,12.53-7.75,136.47,136.47,0,0,0,6.77-16.87,31.72,31.72,0,0,0-3.44-16.1C259.33,134.49,258,134.43,257.1,135.41Z"/><path class="cls-10" d="M111.56,176c-4.67-5.33-1.57-18.87-14.44-21s-14.9,12.59-14.9,12.59-2-19-15.55-21-19.52,14.31-19.52,14.31-.93-11.11-11.59-15.33c-6.26-2.47-10.16.17-12.33,2.79-.26,1.95-.45,4.14-.54,6.62-.19,5.73,1.52,9.85,4.63,13,3.87-1.66,6.46-7.09,6.46-7.09a108.45,108.45,0,0,0,4,13.38,145.66,145.66,0,0,0,14.91,4.52c5.16-6.67,10-16.79,10-16.79s-.38,11,1.64,20A137.07,137.07,0,0,0,80,185.33a94.08,94.08,0,0,0,8.85-10.2l3.31,11.94c10.47,1.3,22.58,2.37,35.3,3,1.48-2.45,1.53-5,2.31-6.74C131.17,180.25,116.22,181.36,111.56,176Z"/><path class="cls-11" d="M25.07,137.14a50.76,50.76,0,0,0-2.95,11.13c-.65,5.48,4.05-5.48,7.26-5.56s1.75,2.21,3.94,3.89,3.65-5,5.29-3.31-3.15,9.69,4,6.51,12.54-3.67,13.3-.59.88,17.49,5,12.38,9.06-11.86,11.07-8,3.46,11.94,6.38,8.07,5.84-8,8.39-4.91,6.52,16.53,13.68,7.92,43-7.51,55.08-7.92,64.15-5.24,64.15-5.24a5.61,5.61,0,0,1,4.79,4.45c.73,4-3.1,13.6,0,11.54s.55-5.78,1.82-10.75,6.79-10,7.84-7.72,5.29,11.62,6.75,6,2.92-12.62,6.57-8.39,8,2,10.21-2,1.46-3,5.11,0,1.81-6.53-.19-8.54S34.46,132.51,25.07,137.14Z"/><path class="cls-12" d="M30.27,126.05s-13.91,7.08-7.58,10.12,38.82,11.53,58.55,17,48.12,21.86,63.52,30.66,25.22,13.36,43.39-1.52,33.94-32.52,55.8-40.09,31-6.64,29.75-11.81S237.51,118,237.51,118Z"/><path class="cls-13" d="M25.55,127.46s-7.71,5.38,0,6.71,67.22,18.41,74.93,19.33,44.5,22.95,51.18,27.18,14,7.34,21.73,4,26.27-20.2,34.35-25.71a139.78,139.78,0,0,1,11.93-7.53s45.37-20.67,42.79-24S71.65,118,71.65,118Z"/><path class="cls-14" d="M53.59,139s18.18,9.19,58.89,9.38,45.39,1.76,65.65,2.54,62.05-6.43,70.09-14.13-134.76,0-134.76,0Z"/><path class="cls-15" d="M28.06,114.79s-5.35,7.69,4.65,15.11,42.85,19.81,113.55,16c0,0,23.61-.31,5.76-31.09C135.63,86.52,28.06,114.79,28.06,114.79Z"/><path class="cls-16" d="M29.88,107s18.53,19.57,56.36,24,78.61,4.43,61.33-8.58S29.88,107,29.88,107Z"/><path class="cls-15" d="M266.84,114.79s5.36,7.69-4.64,15.11-42.85,19.81-113.55,16c0,0-23.62-.31-5.77-31.09C159.28,86.52,266.84,114.79,266.84,114.79Z"/><path class="cls-16" d="M265,107s-18.52,19.57-56.35,24-78.61,4.43-61.34-8.58S265,107,265,107Z"/><path class="cls-4" d="M195.43,140.17,170.1,130s1.1-12,1.51-12,18.81,4,18.81,4Z"/><path class="cls-4" d="M97.12,133.65s24.61-1.06,31-9.37-6.82-5.3-6.82-5.3Z"/><path class="cls-4" d="M57,133.19a33.22,33.22,0,0,0,16.76-1.34c8.53-3.14,18.86-7.93,18.86-7.93l-15.12-2.7-14.82,4.83Z"/><path class="cls-4" d="M29.88,130.41l24-6.19s2.1-5.7,1.2-5.77-15.57,0-15.57,0Z"/><path class="cls-5" d="M30.27,92.36c-.62.21-14.42-13.79-14.83-7S11.12,100,7.2,101.22s.83,22,11.54,28.21,24.09-6.8,28.41-7,1.86,6.18,7.62,10.09S75,122,79.89,124.69s3.92,9.27,13.39,9.48,30.68-14.62,34.8-9.89,10.91,27.39,29.24,16.06,18.12-23.27,26.15-13.79,12.77,20.46,22.24,11.26,19.36-19.09,23.68-9.82,14,5.56,21.62,2.88,7.62-17.3,13.8-16.47,20.79-2.47,24.09-10.71-9.47-14-27.59-16.06S30.27,92.36,30.27,92.36Z"/><path class="cls-6" d="M288.9,103.69a6.31,6.31,0,0,0,.32-4c-5,2.63-13.15-1.82-15.64-3.34-3.14-1.91,2.72,7-5.18,10.36s-6.92,9.12-6.92,9.12h0a3.64,3.64,0,0,1,3.33-1.4C271,115.22,285.6,111.93,288.9,103.69Z"/><path class="cls-6" d="M208.14,110.71c-1.77.75-15.13-4.16-15.13,1.43s18,19.09,5.48,29.11c2.14.19,4.48-.78,7.22-3.44,8.11-7.88,16.52-16.25,21.49-12.68h0S209.91,110,208.14,110.71Z"/><path class="cls-6" d="M166.17,110.71s-6.44,27.81-12.5,31.51h0a24,24,0,0,0,3.65-1.88c14.32-8.85,17.32-18.07,21.78-17.17l-4.4-12.46Z"/><path class="cls-6" d="M15.44,85.36C15,92.16,11.12,100,7.2,101.22l23.07-8.86C29.65,92.57,15.85,78.57,15.44,85.36Z"/><path class="cls-6" d="M156.88,109.43H144.31l-21.6,14.31h0c2.48-.6,4.4-.57,5.37.54,3.1,3.56,7.71,17.26,17.6,19,.31-2.06-.44-4.86-2.87-8.45C137,126.24,156.88,109.43,156.88,109.43Z"/><path class="cls-4" d="M242.58,104.92,215,112.28s24.25,10.7,30.44,14.08,1.78,5.82,1.78,5.82h0c1.29-.42,2.57-.88,3.79-1.31,5-1.75,6.7-8.59,9-12.9C250,114.71,242.58,104.92,242.58,104.92Z"/><path class="cls-6" d="M138.24,112.05H111L77.7,124.41h0a3.62,3.62,0,0,1,2.19.28c4.94,2.68,3.92,9.27,13.39,9.48a11.11,11.11,0,0,0,1.49-.09c-1-1.85-2.76-3.83-.1-8.53C98.66,118.51,138.24,112.05,138.24,112.05Z"/><path class="cls-4" d="M34.41,101.22l-7.08,1.1s.35,3.24-5.64,8.55,8.46,4.8,19.15,3a140,140,0,0,1,20.08-1.83L40.33,102l-3.77,0A12.32,12.32,0,0,1,34.41,101.22Z"/><path class="cls-7" d="M25.89,92.36s-11,2.16-8.17,7.35.71,5.91,1,9.17,4.65-1.69,9,1.57-.73-3.14-4.35-3.26.85-4.34-1.33-6.4,6.28-5,6.28-5Z"/><path class="cls-6" d="M53.47,131.47l17.36-18-23.68,8.94C51.11,122.24,49.38,127.56,53.47,131.47Z"/><path class="cls-17" d="M100.84,260c-15.8-5.27-51.17-3.76-10.07,10.53s131.27,7.4,131.28,7.4c27.39-5.71,33.28-14.77,34.7-20.28.39-1.5.86-3.86,1.35-6.76C224.72,261.84,115.85,265,100.84,260Z"/><path class="cls-18" d="M138.24,164.64s17.84,16.49,28.15,14.86,21.57-15.21,30.13-20.37,12.36-9.63-1.09-4.14S166.5,167.17,160,164.64s-31.55-8.5-30.17-7.14S138.24,164.64,138.24,164.64Z"/><ellipse class="cls-19" cx="25.89" cy="141.17" rx="1.24" ry="0.74" transform="matrix(0.39, -0.92, 0.92, 0.39, -114.18, 109.88)"/><path class="cls-7" d="M109,113.23s-13.22,5.58-8.58,7.73,14.6-4.59,19.7,0,7.78,5.39,8.06,3.19,8.62-7.84,11.28-4.09,6.16-6.26,5.91-8.94-3.83,7.71-5.1,7.71-4.4-3.22-8.92-1.09-6,4.59-8.45,2.32-5.37-4.71-10.27-2.85-10.78,2-9,.79,8.63-4.77,8.63-4.77Z"/><ellipse class="cls-19" cx="23.95" cy="152.76" rx="1.24" ry="0.74" transform="translate(-126.04 115.16) rotate(-67.02)"/><ellipse class="cls-19" cx="26.84" cy="147.28" rx="1.24" ry="0.74" transform="translate(-119.22 114.48) rotate(-67.02)"/><ellipse class="cls-19" cx="32.44" cy="149.11" rx="1.24" ry="0.74" transform="translate(-117.5 120.75) rotate(-67.02)"/><ellipse class="cls-19" cx="35.11" cy="154.48" rx="1.24" ry="0.74" transform="translate(-120.82 126.48) rotate(-67.02)"/><ellipse class="cls-19" cx="34.64" cy="143.35" rx="1.24" ry="0.74" transform="translate(-110.85 119.27) rotate(-67.02)"/><ellipse class="cls-19" cx="43.47" cy="156.17" rx="1.24" ry="0.74" transform="translate(-117.27 135.21) rotate(-67.02)"/><ellipse class="cls-19" cx="50.23" cy="152.05" rx="1.24" ry="0.74" transform="translate(-109.36 138.92) rotate(-67.02)"/><ellipse class="cls-19" cx="58.15" cy="149.76" rx="1.24" ry="0.74" transform="translate(-102.42 144.82) rotate(-67.02)"/><ellipse class="cls-19" cx="62.18" cy="154.48" rx="1.24" ry="0.74" transform="translate(-104.32 151.4) rotate(-67.02)"/><ellipse class="cls-19" cx="74.39" cy="153.3" rx="1.24" ry="0.74" transform="translate(-95.79 161.93) rotate(-67.02)"/><ellipse class="cls-19" cx="59.83" cy="158.61" rx="1.24" ry="0.74" transform="translate(-109.55 151.76) rotate(-67.02)"/><ellipse class="cls-19" cx="53.59" cy="163.46" rx="1.24" ry="0.74" transform="translate(-117.82 148.97) rotate(-67.02)"/><ellipse class="cls-19" cx="58.99" cy="167.34" rx="1.24" ry="0.74" transform="translate(-118.1 156.31) rotate(-67.02)"/><ellipse class="cls-19" cx="66.93" cy="167.76" rx="1.24" ry="0.74" transform="translate(-113.64 163.87) rotate(-67.02)"/><ellipse class="cls-19" cx="81.16" cy="162.81" rx="1.24" ry="0.74" transform="translate(-100.42 173.96) rotate(-67.02)"/><ellipse class="cls-19" cx="100.47" cy="170.71" rx="1.24" ry="0.74" transform="translate(-95.92 196.55) rotate(-67.02)"/><ellipse class="cls-19" cx="95.05" cy="175.47" rx="1.24" ry="0.74" transform="translate(-103.6 194.46) rotate(-67.02)"/><ellipse class="cls-19" cx="105.94" cy="168.93" rx="1.24" ry="0.74" transform="translate(-90.95 200.51) rotate(-67.02)"/><ellipse class="cls-19" cx="86.48" cy="167.76" rx="1.24" ry="0.74" transform="translate(-101.73 181.87) rotate(-67.02)"/><ellipse class="cls-19" cx="97.12" cy="164.64" rx="1.24" ry="0.74" transform="translate(-92.37 189.77) rotate(-67.02)"/><ellipse class="cls-19" cx="79.86" cy="155.66" rx="1.24" ry="0.74" transform="translate(-94.62 168.4) rotate(-67.02)"/><ellipse class="cls-19" cx="92.66" cy="160.44" rx="1.24" ry="0.74" transform="translate(-91.22 183.1) rotate(-67.02)"/><ellipse class="cls-19" cx="66.93" cy="160.96" rx="1.24" ry="0.74" transform="translate(-107.39 159.73) rotate(-67.02)"/><ellipse class="cls-19" cx="51.9" cy="157.34" rx="1.24" ry="0.74" transform="translate(-113.22 143.69) rotate(-67.02)"/><ellipse class="cls-19" cx="26.38" cy="150.93" rx="0.69" ry="0.41" transform="translate(-122.87 116.28) rotate(-67.02)"/><ellipse class="cls-19" cx="44.77" cy="151.4" rx="0.69" ry="0.41" transform="translate(-112.09 133.5) rotate(-67.02)"/><ellipse class="cls-19" cx="47.15" cy="158.08" rx="0.69" ry="0.41" transform="translate(-116.79 139.77) rotate(-67.02)"/><ellipse class="cls-19" cx="30.35" cy="152.05" rx="0.69" ry="0.41" transform="translate(-121.48 120.62) rotate(-67.02)"/><ellipse class="cls-19" cx="30.81" cy="141.17" rx="0.69" ry="0.41" transform="translate(-111.18 114.41) rotate(-67.02)"/><ellipse class="cls-19" cx="40.1" cy="149.11" rx="0.69" ry="0.41" transform="translate(-112.83 127.8) rotate(-67.02)"/><ellipse class="cls-19" cx="43.47" cy="145.25" rx="0.69" ry="0.41" transform="translate(-107.22 128.55) rotate(-67.02)"/><ellipse class="cls-19" cx="61.34" cy="150.93" rx="0.69" ry="0.41" transform="translate(-101.56 148.47) rotate(-67.02)"/><ellipse class="cls-19" cx="63.48" cy="163.46" rx="0.69" ry="0.41" transform="translate(-111.8 158.08) rotate(-67.02)"/><ellipse class="cls-19" cx="70.36" cy="164.12" rx="0.69" ry="0.41" transform="translate(-108.2 164.81) rotate(-67.02)"/><ellipse class="cls-19" cx="74.85" cy="166.05" rx="0.69" ry="0.41" transform="translate(-107.24 170.12) rotate(-67.02)"/><ellipse class="cls-19" cx="78.16" cy="166.58" rx="0.69" ry="0.41" transform="translate(-105.72 173.5) rotate(-67.02)"/><ellipse class="cls-19" cx="89.69" cy="171.89" rx="0.69" ry="0.41" transform="translate(-103.58 187.34) rotate(-67.02)"/><ellipse class="cls-19" cx="103.24" cy="166.58" rx="0.69" ry="0.41" transform="translate(-90.43 196.58) rotate(-67.02)"/><ellipse class="cls-19" cx="82.46" cy="166.17" rx="0.69" ry="0.41" transform="translate(-102.72 177.2) rotate(-67.02)"/><ellipse class="cls-19" cx="95.05" cy="161.64" rx="0.69" ry="0.41" transform="translate(-90.87 186.03) rotate(-67.02)"/><ellipse class="cls-19" cx="84.26" cy="159.79" rx="0.69" ry="0.41" transform="translate(-95.74 174.97) rotate(-67.02)"/><ellipse class="cls-19" cx="69.44" cy="156.17" rx="0.69" ry="0.41" transform="translate(-101.45 159.11) rotate(-67.02)"/><ellipse class="cls-19" cx="64.94" cy="152.05" rx="0.69" ry="0.41" transform="translate(-100.4 152.46) rotate(-67.02)"/><ellipse class="cls-19" cx="75.78" cy="156.83" rx="0.69" ry="0.41" transform="translate(-98.19 165.36) rotate(-67.02)"/><ellipse class="cls-19" cx="76.75" cy="159.79" rx="0.69" ry="0.41" transform="translate(-100.32 168.05) rotate(-67.02)"/><ellipse class="cls-19" cx="89.69" cy="158.08" rx="0.69" ry="0.41" transform="translate(-90.87 178.93) rotate(-67.02)"/><ellipse class="cls-19" cx="47.15" cy="146.1" rx="0.69" ry="0.41" transform="translate(-105.76 132.46) rotate(-67.02)"/><ellipse class="cls-19" cx="42.6" cy="148.45" rx="0.69" ry="0.41" transform="translate(-110.7 129.7) rotate(-67.02)"/><ellipse class="cls-19" cx="41.03" cy="145.25" rx="0.69" ry="0.41" transform="translate(-108.71 126.3) rotate(-67.02)"/><ellipse class="cls-19" cx="90.15" cy="202.5" rx="1.24" ry="0.74" transform="translate(-125.93 251.89) rotate(-78.88)"/><ellipse class="cls-19" cx="88.62" cy="210.14" rx="1.24" ry="0.74" transform="translate(-134.67 256.55) rotate(-78.88)"/><ellipse class="cls-19" cx="81.44" cy="206.45" rx="1.24" ry="0.74" transform="translate(-136.85 246.53) rotate(-78.88)"/><ellipse class="cls-19" cx="85.94" cy="205.12" rx="1.24" ry="0.74" transform="translate(-131.91 249.86) rotate(-78.88)"/><ellipse class="cls-19" cx="92.34" cy="208.28" rx="1.24" ry="0.74" transform="translate(-129.84 258.7) rotate(-78.88)"/><ellipse class="cls-19" cx="98.2" cy="208.92" rx="1.24" ry="0.74" transform="translate(-125.74 264.96) rotate(-78.88)"/><ellipse class="cls-19" cx="101.91" cy="213.63" rx="1.24" ry="0.74" transform="translate(-127.37 272.4) rotate(-78.88)"/><ellipse class="cls-19" cx="99.17" cy="202.83" rx="1.24" ry="0.74" transform="translate(-118.98 261) rotate(-78.88)"/><ellipse class="cls-19" cx="110.44" cy="213.56" rx="1.24" ry="0.74" transform="translate(-120.41 280.72) rotate(-78.88)"/><ellipse class="cls-19" cx="116.21" cy="208.14" rx="1.24" ry="0.74" transform="translate(-110.44 282.01) rotate(-78.88)"/><ellipse class="cls-19" cx="123.49" cy="204.27" rx="1.24" ry="0.74" transform="translate(-100.76 286.03) rotate(-78.88)"/><ellipse class="cls-19" cx="139.59" cy="205.44" rx="1.24" ry="0.74" transform="translate(-88.93 302.77) rotate(-78.88)"/><ellipse class="cls-19" cx="144.71" cy="217.27" rx="1.24" ry="0.74" transform="translate(-96.4 317.34) rotate(-78.88)"/><ellipse class="cls-19" cx="144.71" cy="208.14" rx="0.74" ry="1.24" transform="translate(-57.04 54.65) rotate(-17.93)"/><ellipse class="cls-19" cx="121.85" cy="218.62" rx="1.24" ry="0.74" transform="matrix(0.19, -0.98, 0.98, 0.19, -116.18, 296)"/><ellipse class="cls-19" cx="127.93" cy="221.31" rx="1.24" ry="0.74" transform="translate(-113.9 304.13) rotate(-78.88)"/><ellipse class="cls-19" cx="135.79" cy="220.08" rx="1.24" ry="0.74" transform="translate(-106.36 310.85) rotate(-78.88)"/><ellipse class="cls-19" cx="134.39" cy="213.43" rx="1.24" ry="0.74" transform="translate(-100.96 304.11) rotate(-78.88)"/><ellipse class="cls-19" cx="118.94" cy="212.98" rx="1.24" ry="0.74" transform="translate(-112.99 288.59) rotate(-78.88)"/><ellipse class="cls-19" cx="92.64" cy="211.95" rx="0.69" ry="0.41" transform="translate(-133.2 261.95) rotate(-78.88)"/><ellipse class="cls-19" cx="75.86" cy="207.34" rx="0.69" ry="0.41" transform="translate(-142.22 241.77) rotate(-78.88)"/><ellipse class="cls-19" cx="110.74" cy="208.62" rx="0.69" ry="0.41" transform="translate(-115.33 277.03) rotate(-78.88)"/><ellipse class="cls-19" cx="114.44" cy="214.68" rx="0.69" ry="0.41" transform="translate(-118.29 285.55) rotate(-78.88)"/><ellipse class="cls-19" cx="96.75" cy="212.23" rx="0.69" ry="0.41" transform="translate(-130.15 266.21) rotate(-78.88)"/><ellipse class="cls-19" cx="94.97" cy="201.48" rx="0.69" ry="0.41" transform="translate(-121.05 255.8) rotate(-78.88)"/><ellipse class="cls-19" cx="105.69" cy="207.34" rx="0.69" ry="0.41" transform="translate(-118.15 271.04) rotate(-78.88)"/><ellipse class="cls-19" cx="108.2" cy="202.87" rx="0.69" ry="0.41" transform="translate(-111.74 269.89) rotate(-78.88)"/><ellipse class="cls-19" cx="126.85" cy="204.76" rx="0.69" ry="0.41" transform="translate(-98.54 289.73) rotate(-78.88)"/><ellipse class="cls-19" cx="131.52" cy="216.59" rx="0.69" ry="0.41" transform="translate(-106.37 303.85) rotate(-78.88)"/><ellipse class="cls-19" cx="138.4" cy="215.81" rx="0.69" ry="0.41" transform="translate(-100.06 309.97) rotate(-78.88)"/><ellipse class="cls-19" cx="135.85" cy="208.22" rx="0.69" ry="0.41" transform="translate(-94.67 301.35) rotate(-78.88)"/><ellipse class="cls-19" cx="130.61" cy="205.12" rx="0.69" ry="0.41" transform="translate(-95.86 293.7) rotate(-78.88)"/><ellipse class="cls-19" cx="111.98" cy="202.95" rx="0.69" ry="0.41" transform="translate(-108.77 273.67) rotate(-78.88)"/><ellipse class="cls-19" cx="108" cy="206.19" rx="0.69" ry="0.41" transform="translate(-115.15 272.38) rotate(-78.88)"/><ellipse class="cls-19" cx="105.81" cy="203.37" rx="0.69" ry="0.41" transform="translate(-114.16 267.95) rotate(-78.88)"/><ellipse class="cls-19" cx="262.26" cy="142.49" rx="0.74" ry="1.24" transform="translate(-27.86 72.39) rotate(-14.93)"/><ellipse class="cls-19" cx="262.56" cy="154.24" rx="0.74" ry="1.24" transform="translate(-30.88 72.86) rotate(-14.93)"/><ellipse class="cls-19" cx="260.47" cy="148.4" rx="0.74" ry="1.24" transform="translate(-29.44 72.13) rotate(-14.93)"/><ellipse class="cls-19" cx="254.67" cy="149.43" rx="0.74" ry="1.24" transform="translate(-29.9 70.67) rotate(-14.93)"/><ellipse class="cls-19" cx="251.27" cy="154.38" rx="0.74" ry="1.24" transform="translate(-31.29 69.96) rotate(-14.93)"/><ellipse class="cls-19" cx="253.29" cy="143.42" rx="0.74" ry="1.24" transform="translate(-28.4 70.11) rotate(-14.93)"/><ellipse class="cls-19" cx="242.75" cy="154.88" rx="0.74" ry="1.24" transform="matrix(0.97, -0.26, 0.26, 0.97, -31.71, 67.78)"/><ellipse class="cls-19" cx="236.64" cy="149.85" rx="0.74" ry="1.24" transform="matrix(0.97, -0.26, 0.26, 0.97, -30.62, 66.04)"/><ellipse class="cls-19" cx="229.76" cy="157.3" rx="0.74" ry="1.24" transform="matrix(0.97, -0.26, 0.26, 0.97, -32.77, 64.52)"/><ellipse class="cls-19" cx="225.66" cy="153.03" rx="0.74" ry="1.24" transform="matrix(0.97, -0.26, 0.26, 0.97, -31.81, 63.31)"/><ellipse class="cls-19" cx="260.41" cy="152.09" rx="0.41" ry="0.69" transform="translate(-30.4 72.24) rotate(-14.93)"/><ellipse class="cls-19" cx="242.13" cy="149.97" rx="0.41" ry="0.69" transform="matrix(0.97, -0.26, 0.26, 0.97, -30.47, 67.46)"/><ellipse class="cls-19" cx="240.08" cy="160.46" rx="0.41" ry="0.69" transform="translate(-33.24 67.28) rotate(-14.93)"/><ellipse class="cls-19" cx="232.89" cy="153.31" rx="0.41" ry="0.69" transform="translate(-31.64 65.19) rotate(-14.93)"/><ellipse class="cls-19" cx="256.33" cy="152.64" rx="0.41" ry="0.69" transform="translate(-30.68 71.2) rotate(-14.93)"/><ellipse class="cls-19" cx="257.39" cy="141.8" rx="0.41" ry="0.69" transform="matrix(0.97, -0.26, 0.26, 0.97, -27.85, 71.11)"/><ellipse class="cls-19" cx="247.08" cy="148.36" rx="0.41" ry="0.69" transform="translate(-29.88 68.68) rotate(-14.93)"/><ellipse class="cls-19" cx="244.28" cy="144.06" rx="0.41" ry="0.69" transform="translate(-28.87 67.81) rotate(-14.93)"/><ellipse class="cls-19" cx="240.52" cy="144.39" rx="0.41" ry="0.69" transform="translate(-29.08 66.85) rotate(-14.93)"/><ellipse class="cls-19" cx="244.7" cy="147.36" rx="0.41" ry="0.69" transform="matrix(0.97, -0.26, 0.26, 0.97, -29.71, 68.03)"/><ellipse class="cls-19" cx="246.71" cy="144.41" rx="0.41" ry="0.69" transform="translate(-28.88 68.45) rotate(-14.93)"/><ellipse class="cls-19" cx="208.93" cy="203.27" rx="0.74" ry="1.24" transform="translate(-29.28 35.26) rotate(-9.02)"/><ellipse class="cls-19" cx="208.17" cy="216.56" rx="0.74" ry="1.24" transform="translate(-31.37 35.31) rotate(-9.02)"/><ellipse class="cls-19" cx="208.93" cy="211.77" rx="0.74" ry="1.24" transform="translate(-30.61 35.37) rotate(-9.02)"/><ellipse class="cls-19" cx="198.91" cy="210.76" rx="0.74" ry="1.24" transform="translate(-30.58 33.78) rotate(-9.02)"/><ellipse class="cls-19" cx="196.93" cy="215.54" rx="0.74" ry="1.24" transform="translate(-31.35 33.53) rotate(-9.02)"/><ellipse class="cls-19" cx="199.3" cy="201.99" rx="0.74" ry="1.24" transform="translate(-29.2 33.74) rotate(-9.02)"/><ellipse class="cls-19" cx="188.4" cy="215.16" rx="0.74" ry="1.24" transform="translate(-31.4 32.19) rotate(-9.02)"/><ellipse class="cls-19" cx="182.84" cy="209.53" rx="0.74" ry="1.24" transform="translate(-30.58 31.25) rotate(-9.02)"/><ellipse class="cls-19" cx="175.23" cy="220.43" rx="0.74" ry="1.24" transform="translate(-32.39 30.19) rotate(-9.02)"/><ellipse class="cls-19" cx="170.07" cy="214.88" rx="0.74" ry="1.24" transform="translate(-31.58 29.31) rotate(-9.02)"/><ellipse class="cls-19" cx="206.25" cy="214.2" rx="0.41" ry="0.69" transform="translate(-31.03 34.98) rotate(-9.02)"/><ellipse class="cls-19" cx="188.29" cy="210.22" rx="0.41" ry="0.69" transform="matrix(0.99, -0.16, 0.16, 0.99, -30.62, 32.11)"/><ellipse class="cls-19" cx="185.17" cy="220.43" rx="0.41" ry="0.69" transform="matrix(0.99, -0.16, 0.16, 0.99, -32.26, 31.75)"/><ellipse class="cls-19" cx="178.75" cy="212.58" rx="0.41" ry="0.69" transform="translate(-31.11 30.65) rotate(-9.02)"/><ellipse class="cls-19" cx="202.13" cy="214.33" rx="0.41" ry="0.69" transform="translate(-31.1 34.33) rotate(-9.02)"/><ellipse class="cls-19" cx="204.31" cy="203.66" rx="0.41" ry="0.69" transform="translate(-29.4 34.54) rotate(-9.02)"/><ellipse class="cls-19" cx="193.38" cy="209.12" rx="0.41" ry="0.69" transform="translate(-30.39 32.9) rotate(-9.02)"/><ellipse class="cls-19" cx="191.8" cy="201.4" rx="0.41" ry="0.69" transform="translate(-29.2 32.55) rotate(-9.02)"/><ellipse class="cls-19" cx="187.26" cy="202.33" rx="0.41" ry="0.69" transform="translate(-29.4 31.85) rotate(-9.02)"/><ellipse class="cls-19" cx="191.11" cy="207.88" rx="0.41" ry="0.69" transform="translate(-30.22 32.53) rotate(-9.02)"/><ellipse class="cls-19" cx="194.18" cy="201.99" rx="0.41" ry="0.69" transform="translate(-29.26 32.93) rotate(-9.02)"/><ellipse class="cls-19" cx="183.71" cy="203.56" rx="0.74" ry="1.24" transform="translate(-29.64 31.31) rotate(-9.02)"/><ellipse class="cls-19" cx="182.8" cy="215.28" rx="0.74" ry="1.24" transform="translate(-31.48 31.31) rotate(-9.02)"/><ellipse class="cls-19" cx="175.44" cy="209.68" rx="0.74" ry="1.24" transform="translate(-30.7 30.09) rotate(-9.02)"/><ellipse class="cls-19" cx="174.69" cy="203.56" rx="0.74" ry="1.24" transform="translate(-29.75 29.9) rotate(-9.02)"/><ellipse class="cls-19" cx="163.03" cy="213.87" rx="0.74" ry="1.24" transform="translate(-31.51 28.2) rotate(-9.02)"/><ellipse class="cls-19" cx="157.59" cy="210.97" rx="0.74" ry="1.24" transform="translate(-31.12 27.31) rotate(-9.02)"/><ellipse class="cls-19" cx="149.86" cy="214.94" rx="0.74" ry="1.24" transform="translate(-31.84 26.15) rotate(-9.02)"/><ellipse class="cls-19" cx="162.92" cy="208.93" rx="0.41" ry="0.69" transform="matrix(0.99, -0.16, 0.16, 0.99, -30.74, 28.12)"/><ellipse class="cls-19" cx="159.8" cy="219.15" rx="0.41" ry="0.69" transform="matrix(0.99, -0.16, 0.16, 0.99, -32.38, 27.76)"/><ellipse class="cls-19" cx="153.38" cy="211.3" rx="0.41" ry="0.69" transform="translate(-31.22 26.65) rotate(-9.02)"/><ellipse class="cls-19" cx="178.94" cy="202.37" rx="0.41" ry="0.69" transform="translate(-29.51 30.55) rotate(-9.02)"/><ellipse class="cls-19" cx="165.67" cy="203.27" rx="0.41" ry="0.69" transform="translate(-29.81 28.48) rotate(-9.02)"/><ellipse class="cls-19" cx="161.89" cy="203.21" rx="0.41" ry="0.69" transform="translate(-29.85 27.89) rotate(-9.02)"/><ellipse class="cls-19" cx="168.04" cy="203.86" rx="0.41" ry="0.69" transform="translate(-29.88 28.86) rotate(-9.02)"/><path class="cls-7" d="M256.91,86.45s11-.84,12.37,10.06,12.45,2.57,14.68,5.83,1.79-3.55-2.23-3.26-7.94,1.34-8.57-1.73-8.89-15-13.76-13.76S256.91,86.45,256.91,86.45Z"/><path class="cls-7" d="M222.27,106.34s12.27,6.12,9.9,9.23-3.35,3.06.87,4,11.54,4.68,12.12.81,2.13-7.56,4.32-7.39-1.44.81-1.84,3.7-.41,9.17-2.95,8.48S224.9,122,226,119.79s5.13-6.18,2.3-6.64S216.47,109,216.47,109Z"/><path class="cls-20" d="M267,88c0,36.93-54.7,26.36-122.17,26.36S22.69,125,22.69,88s54.7-66.88,122.17-66.88S267,51.1,267,88Z"/><g class="cls-21"><path class="cls-22" d="M22.6,66.87c0,36.93,54.69,26.37,122.16,26.37S266.93,103.8,266.93,66.87,212.23,0,144.76,0,22.6,29.94,22.6,66.87Z"/></g><ellipse class="cls-23" cx="89.83" cy="47.83" rx="2.36" ry="0.89" transform="translate(-11.29 36.34) rotate(-21.55)"/><ellipse class="cls-23" cx="79.05" cy="67.09" rx="2.36" ry="0.89" transform="translate(-19.12 33.73) rotate(-21.55)"/><ellipse class="cls-23" cx="105.16" cy="36.43" rx="2.36" ry="0.89" transform="translate(-5.1 21.31) rotate(-11.3)"/><ellipse class="cls-23" cx="81.37" cy="38.33" rx="2.36" ry="0.89" transform="translate(-5.93 16.69) rotate(-11.3)"/><ellipse class="cls-23" cx="100.24" cy="61.89" rx="2.36" ry="0.89" transform="translate(1.71 126.47) rotate(-64.93)"/><ellipse class="cls-23" cx="151.78" cy="55.84" rx="0.89" ry="2.36" transform="translate(-7.97 30.65) rotate(-11.24)"/><ellipse class="cls-23" cx="169.91" cy="38.33" rx="0.89" ry="2.36" transform="translate(8.86 104.67) rotate(-35.1)"/><ellipse class="cls-23" cx="140.23" cy="46.94" rx="2.36" ry="0.89" transform="matrix(0.13, -0.99, 0.99, 0.13, 75.35, 179.82)"/><ellipse class="cls-23" cx="136.47" cy="65.88" rx="2.36" ry="0.89" transform="translate(53.3 192.56) rotate(-82.48)"/><ellipse class="cls-23" cx="153.94" cy="32.8" rx="0.89" ry="2.36" transform="translate(57.26 157.01) rotate(-64.13)"/><ellipse class="cls-23" cx="207.57" cy="38.33" rx="0.89" ry="2.36" transform="translate(82.52 208.38) rotate(-64.13)"/><ellipse class="cls-23" cx="181.81" cy="46.63" rx="0.89" ry="2.36" transform="translate(-1.56 86.69) rotate(-26.71)"/><ellipse class="cls-23" cx="205.41" cy="46.94" rx="0.89" ry="2.36" transform="translate(57.1 196.6) rotate(-58.13)"/><ellipse class="cls-23" cx="180.49" cy="34.11" rx="0.89" ry="2.36" transform="translate(56.22 169.38) rotate(-58.13)"/><ellipse class="cls-23" cx="226.39" cy="60.31" rx="0.89" ry="2.36" transform="translate(55.64 220.74) rotate(-58.13)"/><ellipse class="cls-23" cx="224.33" cy="42.16" rx="0.89" ry="2.36" transform="translate(70.09 210.42) rotate(-58.13)"/><ellipse class="cls-23" cx="172.79" cy="51.77" rx="0.89" ry="2.36" transform="translate(-4.83 83.18) rotate(-26.71)"/><ellipse class="cls-23" cx="178.42" cy="68.29" rx="0.89" ry="2.36" transform="translate(-11.65 87.48) rotate(-26.71)"/><ellipse class="cls-23" cx="160.09" cy="46.63" rx="0.89" ry="2.36" transform="translate(-6.34 36.38) rotate(-12.71)"/><ellipse class="cls-23" cx="196.36" cy="56.18" rx="0.89" ry="2.36" transform="translate(-6.2 82.33) rotate(-23.32)"/><ellipse class="cls-23" cx="114.14" cy="43.87" rx="2.36" ry="0.89" transform="translate(4.46 97.93) rotate(-47.26)"/><ellipse class="cls-23" cx="57.12" cy="53.52" rx="2.36" ry="0.89" transform="translate(-16.89 28.04) rotate(-24.14)"/><ellipse class="cls-23" cx="120.03" cy="56.18" rx="2.36" ry="0.89" transform="translate(-3.81 103.38) rotate(-45.95)"/><ellipse class="cls-23" cx="134.38" cy="37.42" rx="2.36" ry="0.89" transform="translate(-0.64 72.46) rotate(-30.11)"/><ellipse class="cls-23" cx="123.14" cy="31.5" rx="2.36" ry="0.89" transform="translate(-3.94 34.11) rotate(-15.52)"/><path class="cls-24" d="M217.47,102.23c-49.11-12.29-92.93-6.4-142.62-1-36.63,4-47.6-13.56-50.83-23A37.68,37.68,0,0,0,22.69,88c0,36.93,54.7,26.36,122.17,26.36,65.16,0,118.4,9.85,122-22.74C257.67,100.77,242.28,108.43,217.47,102.23Z"/><g class="cls-25"><path class="cls-26" d="M19.75,94.29s9,23,72.83,15.81S211.43,113.26,228.5,114s35.9-6.5,46.93-19.68,12.46,23.44,12.46,23.44L219.67,153.4,18.74,119.93Z"/></g><path class="cls-8" d="M.3,215.65S4.85,222,9.72,219.4s5,5.58,8.66,5.23A8.17,8.17,0,0,1,24.61,227S4.53,229,.3,215.65Z"/><path class="cls-8" d="M62.22,237.72s6.12-5.62,12.77-1.58,10.64,17,15.94,17.7c0,0-4.21,4.37-11.62-2.4S69.26,235.39,62.22,237.72Z"/><path class="cls-8" d="M122.44,245.64s7.47,6.22,9,3.05,3.74-4.56,5.29-1.08,3.41.43,5.09-1.31.27,3.22,4.23,2,2.19-1.88,5.75-2.77a16.66,16.66,0,0,0,6.58-3.89s-4.83,14.51-16.56,15S122.44,245.64,122.44,245.64Z"/><path class="cls-8" d="M255.1,241.39s6.67,2.39,8.34-2.26-2.61-15.49,1.42-12.5,5.93,7.21,7.36,4.38-2.88-7.93,1.58-8.88,9.44-4.13,9-7.88c0,0,6.3,2.9-.62,17.38S263.8,246.05,255.1,241.39Z"/><path class="cls-8" d="M233.66,245.58a6.44,6.44,0,0,0,2.19-6.45c-1-4.09-1.86-8.12.18-6.91s3.23-1.28,3.3-3,.89.13,3.26,3.16a30.42,30.42,0,0,0,5.15,5.11s-6.56-2.66-7,0S237,244.64,233.66,245.58Z"/><path class="cls-18" d="M23.09,186.88s.68,22.73,6.29,22S77.48,196.16,75.86,195s-35.57,7.64-39.66,6.23S24.58,181.25,23.09,186.88Z"/><path class="cls-18" d="M219,194s20.74,11.15,26.08,11.24,16.22-17.88,16.87-23S237.72,193.41,219,194Z"/></g></g></g></svg>