<svg xmlns="http://www.w3.org/2000/svg" width="421.647" height="642.443" viewBox="0 0 421.647 642.443">
  <g id="french-fries" transform="translate(-184 -36)">
    <g id="french-fries-2" data-name="french-fries">
      <g id="french-fries-3" data-name="french-fries" transform="translate(184 36)">
        <path id="Path_5" data-name="Path 5" d="M401.068,13.334H361.853c-5.414,0-9.8,5.992-9.8,13.383V196.511c.008,6.351,3.285,11.818,7.843,13.088l39.215,11.241a7.083,7.083,0,0,0,1.96.295c5.414,0,9.8-5.992,9.8-13.383V26.715C410.872,19.325,406.482,13.334,401.068,13.334Z" transform="translate(-52.948 3.395)" fill="#ffca28"/>
        <path id="Path_6" data-name="Path 6" d="M351.321,14.842a8.815,8.815,0,0,0-7.118-4.175H304.989c-5.221-.01-9.532,5.569-9.8,12.686l-9.8,254.263c-.281,7.381,3.874,13.676,9.281,14.06.175.013.348.019.523.018a7.146,7.146,0,0,0,2.451-.4l39.215-13.383c4.166-1.421,7.171-6.378,7.411-12.231l9.8-240.88A16.434,16.434,0,0,0,351.321,14.842Z" transform="translate(-47.553 2.716)" fill="#ffb300"/>
        <g id="Group_2" data-name="Group 2" transform="translate(0 80.297)">
          <path id="Path_7" data-name="Path 7" d="M91.157,77.079a7.8,7.8,0,0,0-7.548-2.168L34.59,88.294c-5.223,1.356-8.7,8.147-7.843,15.31L46.354,264.191c.783,6.514,4.929,11.275,9.764,11.215h49.018c5.414,0,9.8-6,9.8-13.388a18.2,18.2,0,0,0-.114-2.029L95.216,86.018A14.651,14.651,0,0,0,91.157,77.079Z" transform="translate(-26.617 -61.292)" fill="#ffc107"/>
          <path id="Path_8" data-name="Path 8" d="M468.115,92.182,428.9,65.418c-4.843-3.3-10.731-.625-13.153,5.986,0,0,0,.006,0,.01L339.882,278.49c-2.426,6.608-.468,14.649,4.373,17.959a7.749,7.749,0,0,0,4.391,1.418,7.42,7.42,0,0,0,1.843-.241L426.35,277.9c3.482-.913,6.331-4.321,7.451-8.913L473.016,108.4C474.569,102.083,472.479,95.169,468.115,92.182Z" transform="translate(-51.879 -64.003)" fill="#ffc107"/>
        </g>
        <path id="Path_9" data-name="Path 9" d="M407.911,141.784,368.7,128.4c-5.253-1.786-10.574,2.578-11.883,9.749-.095.517-.166,1.043-.215,1.572l-9.8,107.057c-.672,7.334,3.14,14.023,8.512,14.938a7.2,7.2,0,0,0,1.291.1h39.215c4.914.068,9.106-4.841,9.8-11.482l9.8-93.676C416.118,149.8,412.859,143.341,407.911,141.784Z" transform="translate(-52.517 32.617)" fill="#ffb300"/>
        <path id="Path_10" data-name="Path 10" d="M126.8,139.722c-.673-7.333-5.574-12.533-10.946-11.615a7.5,7.5,0,0,0-1.152.294L75.491,141.784c-4.878,1.66-8.046,8.088-7.333,14.881l9.8,93.676c.7,6.64,4.89,11.55,9.8,11.482H126.98c5.414.058,9.837-5.888,9.879-13.279q.005-.884-.075-1.763Z" transform="translate(-29.97 32.618)" fill="#ffd54f"/>
        <path id="Path_11" data-name="Path 11" d="M149.479,25.14a14.753,14.753,0,0,0-4.176-9.448,7.636,7.636,0,0,0-7.941-1.953L98.148,27.12c-4.366,1.487-7.43,6.839-7.431,12.981l.118,42.154,19.607,173.969c.735,6.526,4.848,11.345,9.686,11.348h39.215c5.414.051,9.834-5.9,9.872-13.289q0-.839-.068-1.672Z" transform="translate(-31.804 3.392)" fill="#ffc107"/>
        <g id="Group_3" data-name="Group 3" transform="translate(88.694 26.766)">
          <path id="Path_12" data-name="Path 12" d="M230.157,356.192,201.315,131.05a6.046,6.046,0,0,0-.235-1.365L181.473,36.009c-1.506-7.1-6.944-11.187-12.144-9.13a8.456,8.456,0,0,0-1.581.833L128.533,54.476c-3.611,2.468-5.743,7.706-5.372,13.194l21.98,329.5c.49,7.361,5.258,12.785,10.65,12.117a7.783,7.783,0,0,0,2.9-.982l65.586-37.471C228.5,368.426,230.941,362.348,230.157,356.192Z" transform="translate(-123.12 -20.058)" fill="#fed54f"/>
          <path id="Path_13" data-name="Path 13" d="M297.684,21.334H258.469c-5.088-.028-9.345,5.26-9.8,12.178l-23.254,352.97c-.487,7.361,3.489,13.867,8.881,14.532a7.109,7.109,0,0,0,.922.054h54.528c5.265.006,9.593-5.666,9.8-12.847l7.941-272.676V34.715C307.487,27.325,303.1,21.334,297.684,21.334Z" transform="translate(-131.393 -21.334)" fill="#ffd54f"/>
        </g>
        <path id="Path_14" data-name="Path 14" d="M352.946,109.693,294.124,96.31a8.083,8.083,0,0,0-7.628,2.676,15.23,15.23,0,0,0-3.745,9.448L267.439,358.522c-.437,7.07,3.245,13.376,8.392,14.372l47.312,9.207a7.181,7.181,0,0,0,1.392,0c4.786,0,8.872-4.719,9.666-11.161l7.235-58.534v-.321l19.607-187.351C361.774,117.554,358.184,110.886,352.946,109.693Z" transform="translate(-46.099 24.51)" fill="#ffc107"/>
        <path id="Path_15" data-name="Path 15" d="M261.389,4.256A8.843,8.843,0,0,0,254.213,0H215c-4.973-.053-9.187,4.987-9.8,11.723L172.842,365.415c-.6,6.5,2.337,12.644,6.941,14.507l52,21.011a7.521,7.521,0,0,0,2.824.536c5.151.019,9.433-5.406,9.8-12.419l19.608-374.7A16.562,16.562,0,0,0,261.389,4.256Z" transform="translate(-38.442 0)" fill="#ffb300"/>
        <path id="Path_16" data-name="Path 16" d="M240.2,98.047c-.261-7.129-4.575-12.722-9.8-12.713H191.186c-5.414-.01-9.809,5.973-9.817,13.364q0,.358.013.714l9.8,254.263c.232,5.863,3.239,10.835,7.411,12.259l39.215,13.383a7.176,7.176,0,0,0,2.392.428c5.414.009,9.81-5.974,9.816-13.365,0-.228,0-.458-.012-.686Z" transform="translate(-39.138 21.754)" fill="#ffca28"/>
        <path id="Path_17" data-name="Path 17" d="M427.61,218.686c-1.851-3.37-4.757-5.353-7.843-5.353H321.731c-5.414,0-9.8,5.992-9.8,13.383,0,51.735-30.724,93.676-68.626,93.676H223.694c-37.9,0-68.626-41.94-68.626-93.676,0-7.391-4.39-13.383-9.8-13.383H47.229c-5.414,0-9.8,5.989-9.806,13.38a17.992,17.992,0,0,0,.433,3.937L107.717,540.8c6.262,28.147,25.312,47.35,46.862,47.239h157.76c21.55.11,40.6-19.092,46.862-47.239L429.1,230.65A17.469,17.469,0,0,0,427.61,218.686Z" transform="translate(-27.492 54.406)" fill="#cb0b14"/>
      </g>
    </g>
    <g id="Group_1" data-name="Group 1" transform="translate(-370 487)">
      <path id="Path_1" data-name="Path 1" d="M2586,785l60.652,87.585,61.035-87.4s-30.613,34.963-61.035,34.918S2586,785,2586,785Z" transform="translate(-1882 -697.757)" fill="#ffb300"/>
      <path id="Path_3" data-name="Path 3" d="M2586,785l49.946,72.124,50.261-71.974S2661,813.941,2635.946,813.9,2586,785,2586,785Z" transform="translate(-1871.489 -701.414)" fill="#ffca28"/>
      <path id="Path_4" data-name="Path 4" d="M2586,785l40.294,58.186,40.548-58.065s-20.337,23.227-40.548,23.2S2586,785,2586,785Z" transform="translate(-1861.874 -708.726)" fill="#fed513"/>
      <path id="Path_2" data-name="Path 2" d="M2701.551,849.39" transform="translate(-1936.708 -763.191)" fill="none" stroke="#707070" stroke-width="1"/>
    </g>
    <text id="CLICK_ME" data-name="CLICK
ME" transform="translate(245 409)" fill="#fff" font-size="55" font-family="CoconPro-Regular, CoconPro"><tspan x="78.055" y="59">CLICK</tspan><tspan x="109.322" y="135">ME</tspan></text>
  </g>
</svg>
